<svg width="48" height="48" viewBox="0 0 48 48" fill="none" xmlns="http://www.w3.org/2000/svg">
<rect width="48" height="48" rx="3" fill="#E08867"/>
<path d="M16.5057 17.5455V29.7159C16.4972 31.3949 15.7472 32.2812 14.3835 32.2812C13.0966 32.2812 12.2614 31.4801 12.2358 30.0909H8.5625C8.54545 33.5767 11.0341 35.2386 14.196 35.2386C17.733 35.2386 20.1449 33.0994 20.1534 29.7159V17.5455H16.5057ZM34.8333 22.5653H38.3702C38.3191 19.4545 35.7623 17.3068 31.8759 17.3068C28.0492 17.3068 25.2452 19.4205 25.2623 22.5909C25.2537 25.1648 27.0691 26.6392 30.018 27.3466L31.9185 27.8239C33.8191 28.2841 34.8759 28.8295 34.8844 30.0057C34.8759 31.2841 33.6657 32.1534 31.7907 32.1534C29.8731 32.1534 28.4924 31.267 28.3731 29.5199H24.802C24.8958 33.2955 27.5975 35.2472 31.8333 35.2472C36.0947 35.2472 38.6003 33.2102 38.6089 30.0142C38.6003 27.108 36.41 25.5653 33.3759 24.8835L31.8077 24.5085C30.2907 24.1591 29.0208 23.5966 29.0464 22.3438C29.0464 21.2188 30.0435 20.392 31.8503 20.392C33.6145 20.392 34.6969 21.1932 34.8333 22.5653Z" fill="white"/>
</svg>
