<svg width="45" height="46" viewBox="0 0 45 46" fill="none" xmlns="http://www.w3.org/2000/svg">
<rect x="0.25" y="0.25" width="44.5" height="44.5552" rx="2.75" stroke="#11354C" stroke-width="0.5"/>
<path d="M18.0859 19.6446H19.5938V27.6993C19.5938 28.7879 19.2656 29.6394 18.6094 30.254C17.9583 30.8686 17.0885 31.1759 16 31.1759C14.8698 31.1759 13.9896 30.8868 13.3594 30.3087C12.7292 29.7306 12.4141 28.9207 12.4141 27.879H13.9141C13.9141 28.53 14.0911 29.0379 14.4453 29.4024C14.8047 29.767 15.3229 29.9493 16 29.9493C16.6198 29.9493 17.1198 29.754 17.5 29.3634C17.8854 28.9727 18.0807 28.4259 18.0859 27.7227V19.6446ZM27.1 25.9493C25.8135 25.5795 24.876 25.1264 24.2875 24.5899C23.7042 24.0483 23.4125 23.3816 23.4125 22.5899C23.4125 21.6941 23.7693 20.9545 24.4828 20.3712C25.2016 19.7826 26.1339 19.4884 27.2797 19.4884C28.0609 19.4884 28.7563 19.6394 29.3656 19.9415C29.9802 20.2436 30.4542 20.6602 30.7875 21.1915C31.126 21.7227 31.2953 22.3035 31.2953 22.9337H29.7875C29.7875 22.2462 29.5688 21.7071 29.1313 21.3165C28.6938 20.9207 28.0766 20.7227 27.2797 20.7227C26.5401 20.7227 25.962 20.8868 25.5453 21.2149C25.1339 21.5379 24.9281 21.9884 24.9281 22.5665C24.9281 23.03 25.1234 23.4233 25.5141 23.7462C25.9099 24.0639 26.5792 24.3556 27.5219 24.6212C28.4698 24.8868 29.2094 25.1811 29.7406 25.504C30.2771 25.8217 30.6729 26.1941 30.9281 26.6212C31.1885 27.0483 31.3188 27.5509 31.3188 28.129C31.3188 29.0509 30.9594 29.7905 30.2406 30.3477C29.5219 30.8998 28.5609 31.1759 27.3578 31.1759C26.5766 31.1759 25.8474 31.0274 25.1703 30.7306C24.4932 30.4285 23.9698 30.017 23.6 29.4962C23.2354 28.9754 23.0531 28.3842 23.0531 27.7227H24.5609C24.5609 28.4102 24.8135 28.9545 25.3188 29.3556C25.8292 29.7514 26.5089 29.9493 27.3578 29.9493C28.1495 29.9493 28.7563 29.7879 29.1781 29.4649C29.6 29.142 29.8109 28.7019 29.8109 28.1446C29.8109 27.5873 29.6156 27.1576 29.225 26.8556C28.8344 26.5483 28.126 26.2462 27.1 25.9493Z" fill="#11354C"/>
</svg>
