<svg width="0" height="0" class="hidden">
  <symbol fill="none" xmlns="http://www.w3.org/2000/svg" viewBox="0 0 40 41" id="bootstrap">
    <path d="M0 34.927a5.158 5.158 0 005.158 5.158h29.684A5.158 5.158 0 0040 34.927V5.242A5.158 5.158 0 0034.842.085H5.158A5.158 5.158 0 000 5.242v29.685z" fill="#563D7C"></path>
    <path d="M16.587 17.778v-5.664h4.986c.475 0 .933.039 1.374.118.441.08.831.22 1.17.424.34.204.61.486.814.848.204.362.306.826.306 1.39 0 1.018-.306 1.753-.916 2.206-.61.452-1.39.678-2.34.678h-5.394zm-5.325-9.803v24.219h11.736c1.085 0 2.143-.136 3.171-.407a8.48 8.48 0 002.748-1.255 6.181 6.181 0 001.916-2.188c.475-.893.713-1.95.713-3.171 0-1.516-.368-2.81-1.103-3.884-.735-1.074-1.848-1.826-3.34-2.256 1.085-.52 1.904-1.187 2.459-2.001.553-.814.83-1.832.83-3.053 0-1.13-.186-2.08-.56-2.85a4.654 4.654 0 00-1.576-1.848c-.679-.463-1.493-.797-2.443-1-.95-.204-2.001-.306-3.154-.306H11.262zm5.325 20.08v-6.648h5.8c1.154 0 2.08.266 2.782.798.7.531 1.052 1.419 1.052 2.662 0 .633-.108 1.153-.323 1.56a2.56 2.56 0 01-.865.967c-.362.238-.78.407-1.255.51a7.118 7.118 0 01-1.492.152h-5.699z" fill="#fff"></path>
  </symbol>
  <symbol fill="none" xmlns="http://www.w3.org/2000/svg" viewBox="0 0 40 45" id="c">
    <path d="M39.998 13.217c0-.756-.162-1.424-.49-1.997-.32-.564-.801-1.036-1.446-1.41C32.737 6.74 27.406 3.68 22.083.605c-1.435-.828-2.827-.798-4.251.042C15.712 1.897 5.1 7.977 1.938 9.81.636 10.562.002 11.716.002 13.216 0 19.39.002 25.566 0 31.74c0 .74.155 1.395.468 1.96.32.58.809 1.066 1.469 1.448 3.162 1.831 13.775 7.91 15.894 9.16 1.425.842 2.817.872 4.252.043 5.324-3.074 10.654-6.135 15.98-9.205.66-.382 1.148-.868 1.47-1.448.311-.565.466-1.22.467-1.96 0 0 0-12.346-.002-18.52" fill="#5C8DBC"></path>
    <path d="M20.061 22.418L.468 33.7c.321.58.809 1.066 1.469 1.448 3.162 1.831 13.775 7.91 15.894 9.161 1.425.84 2.817.871 4.253.042 5.323-3.074 10.654-6.135 15.98-9.205.66-.382 1.147-.868 1.468-1.448l-19.47-11.28" fill="#1A4674"></path>
    <path d="M14.258 25.76a6.61 6.61 0 0011.506-.039l-5.703-3.303-5.803 3.342" fill="#1A4674"></path>
    <path d="M39.998 13.217c0-.756-.162-1.424-.489-1.997L20.061 22.418l19.471 11.28c.313-.565.468-1.22.468-1.96 0 0 0-12.346-.002-18.52" fill="#1B598E"></path>
    <path d="M25.763 25.721a6.61 6.61 0 01-11.506.039 6.615 6.615 0 0111.463-6.6l5.782-3.33C29.204 11.864 24.914 9.195 20 9.195c-7.337 0-13.284 5.947-13.284 13.283 0 2.407.64 4.664 1.76 6.61A13.278 13.278 0 0020 35.762a13.28 13.28 0 0011.536-6.695l-5.773-3.345z" fill="#fff"></path>
  </symbol>
  <symbol fill="none" xmlns="http://www.w3.org/2000/svg" viewBox="0 0 40 45" id="c++">
    <path d="M39.998 13.217c0-.756-.162-1.424-.49-1.997-.32-.564-.801-1.036-1.446-1.41C32.737 6.74 27.406 3.68 22.083.605c-1.435-.828-2.827-.798-4.251.042C15.712 1.897 5.1 7.977 1.938 9.81.636 10.562.002 11.716.002 13.216 0 19.39.002 25.566 0 31.74c0 .74.155 1.395.468 1.96.32.58.809 1.066 1.469 1.448 3.162 1.831 13.775 7.91 15.894 9.16 1.425.842 2.817.872 4.252.043 5.324-3.074 10.654-6.135 15.98-9.205.66-.382 1.148-.868 1.47-1.448.311-.565.466-1.22.467-1.96 0 0 0-12.346-.002-18.52" fill="#5C8DBC"></path>
    <path d="M20.061 22.418L.468 33.7c.321.58.809 1.066 1.469 1.448 3.162 1.831 13.775 7.91 15.894 9.161 1.425.84 2.817.871 4.253.042 5.323-3.074 10.654-6.135 15.98-9.205.66-.382 1.147-.868 1.468-1.448l-19.47-11.28" fill="#1A4674"></path>
    <path d="M14.258 25.76a6.61 6.61 0 0011.506-.039l-5.703-3.303-5.803 3.342" fill="#1A4674"></path>
    <path d="M39.998 13.217c0-.756-.162-1.424-.489-1.997L20.061 22.418l19.471 11.28c.313-.565.468-1.22.468-1.96 0 0 0-12.346-.002-18.52" fill="#1B598E"></path>
    <path d="M38.927 23.224h-1.521v1.522h-1.522v-1.522h-1.522v-1.521h1.522V20.18h1.522v1.522h1.521v1.521zm-5.552 0h-1.521v1.522h-1.522v-1.522h-1.521v-1.521h1.521V20.18h1.522v1.522h1.521v1.521z" fill="#fff"></path>
    <path d="M25.763 25.721a6.61 6.61 0 01-11.506.039 6.615 6.615 0 0111.463-6.6l5.782-3.33C29.204 11.864 24.914 9.195 20 9.195c-7.337 0-13.284 5.947-13.284 13.283 0 2.407.64 4.664 1.76 6.61A13.278 13.278 0 0020 35.762a13.28 13.28 0 0011.536-6.695l-5.773-3.345z" fill="#fff"></path>
  </symbol>
  <symbol fill="none" xmlns="http://www.w3.org/2000/svg" viewBox="0 0 31 36" id="css">
    <path d="M2.808 32.086L0 .585h30.86L28.049 32.08 15.41 35.585l-12.604-3.5z" fill="#1572B6"></path>
    <path d="M15.43 32.907l10.212-2.831L28.045 3.16H15.43v29.746z" fill="#33A9DC"></path>
    <path d="M15.43 14.573h5.112l.353-3.956H15.43V6.753h9.687l-.092 1.037-.949 10.647H15.43v-3.864z" fill="#fff"></path>
    <path d="M15.454 24.607l-.018.005-4.302-1.162-.275-3.082H6.98l.541 6.067 7.914 2.197.019-.005v-4.02z" fill="#EBEBEB"></path>
    <path d="M20.214 18.273l-.465 5.174-4.31 1.163v4.02l7.92-2.195.06-.653.67-7.509h-3.875z" fill="#fff"></path>
    <path d="M15.444 6.753v3.864H6.11l-.077-.869-.177-1.958-.092-1.037h9.679zm-.014 7.82v3.864h-4.25l-.077-.869-.175-1.958-.093-1.037h4.594z" fill="#EBEBEB"></path>
  </symbol>
  <symbol fill="none" xmlns="http://www.w3.org/2000/svg" viewBox="0 0 27 41" id="figma">
    <path d="M20 26.751a6.667 6.667 0 100-13.333 6.667 6.667 0 000 13.333z" fill="#19BCFE"></path>
    <path fill-rule="evenodd" clip-rule="evenodd" d="M6.667 40.085a6.666 6.666 0 006.666-6.667V26.75H6.667a6.667 6.667 0 000 13.334z" fill="#09CF83"></path>
    <path fill-rule="evenodd" clip-rule="evenodd" d="M6.667 26.751h6.666V13.418H6.667a6.666 6.666 0 100 13.333z" fill="#A259FF"></path>
    <path fill-rule="evenodd" clip-rule="evenodd" d="M6.667 13.418h6.666V.085H6.667a6.667 6.667 0 100 13.333z" fill="#F24E1E"></path>
    <path fill-rule="evenodd" clip-rule="evenodd" d="M20 13.418h-6.667V.085H20a6.667 6.667 0 010 13.333z" fill="#FF7262"></path>
  </symbol>
  <symbol fill="none" xmlns="http://www.w3.org/2000/svg" viewBox="0 0 40 36" id="github">
    <path d="M31.39 31.303c0 2.172-5.03 3.922-11.234 3.922-6.203 0-11.234-1.765-11.234-3.922 0-2.171 5.031-3.921 11.234-3.921s11.235 1.75 11.235 3.921z" fill="#9EDCF2"></path>
    <path d="M31.39 31.303c0 2.172-5.03 3.922-11.234 3.922-6.203 0-11.234-1.765-11.234-3.922 0-2.171 5.031-3.921 11.234-3.921s11.235 1.75 11.235 3.921z" fill="#7DBCE7"></path>
    <path d="M7.328 19.756L7 20.881s-.078.407.297.485c.406-.016.375-.39.344-.5l-.313-1.11z" fill="#9EDCF2"></path>
    <path d="M39.969 15.022l.031-.14c-3.297-.657-6.672-.672-8.719-.579.328-1.203.438-2.609.438-4.156 0-2.234-.844-4.015-2.188-5.36.235-.765.547-2.468-.312-4.64 0 0-1.532-.484-5.016 1.844a17.521 17.521 0 00-4.265-.516 18.33 18.33 0 00-4.72.61C11.626-.368 10.048.132 10.048.132c-1.031 2.578-.39 4.5-.203 4.968-1.22 1.313-1.955 2.985-1.955 5.032 0 1.546.171 2.937.609 4.14-2.063-.078-5.313-.047-8.5.594l.031.14c3.188-.64 6.469-.656 8.516-.578.094.25.203.5.312.735-2.03.062-5.484.328-8.796 1.265l.046.141c3.344-.937 6.829-1.187 8.844-1.25 1.219 2.25 3.594 3.719 7.844 4.172-.61.406-1.219 1.094-1.469 2.265-.828.391-3.422 1.36-4.984-1.328 0 0-.875-1.593-2.547-1.718 0 0-1.625-.032-.11 1.015 0 0 1.079.516 1.829 2.438 0 0 .984 3.281 5.687 2.218v3.36S15.11 28.944 14 29.335c0 0-.656.453.047.703 0 0 3.047.25 3.047-2.25V24.1s-.125-1.469.593-1.969v6.063s-.046 1.453-.796 2c0 0-.5.89.593.656 0 0 2.094-.297 2.188-2.75l.047-6.14h.5l.047 6.14c.093 2.438 2.187 2.75 2.187 2.75 1.094.25.594-.656.594-.656-.75-.547-.797-2-.797-2v-6.016c.719.563.594 1.922.594 1.922v3.688c0 2.5 3.047 2.25 3.047 2.25.703-.25.047-.703.047-.703-1.094-.407-1.204-1.594-1.204-1.594v-4.844c0-1.89-.797-2.89-1.578-3.406 4.532-.453 6.703-1.906 7.703-4.188 1.985.047 5.563.297 8.97 1.266l.046-.14c-3.39-.954-6.938-1.204-8.953-1.266.094-.235.172-.469.25-.719 2.094-.078 5.484-.078 8.797.578z" fill="#010101"></path>
    <path d="M27.281 10.038c.969.89 1.547 1.953 1.547 3.094 0 5.374-4 5.515-8.937 5.515-4.938 0-8.938-.75-8.938-5.515 0-1.141.563-2.204 1.531-3.079 1.61-1.468 4.329-.687 7.407-.687 3.078 0 5.78-.797 7.39.672z" fill="#F5CCB3"></path>
    <path d="M16.922 13.413c0 1.484-.828 2.672-1.86 2.672-1.03 0-1.859-1.203-1.859-2.672 0-1.485.828-2.672 1.86-2.672 1.03-.016 1.859 1.188 1.859 2.672z" fill="#fff"></path>
    <path d="M16.328 13.444c0 .984-.562 1.781-1.234 1.781-.688 0-1.235-.796-1.235-1.78 0-.985.563-1.782 1.235-1.782.672 0 1.234.797 1.234 1.781z" fill="#AF5C51"></path>
    <path d="M26.906 13.413c0 1.484-.828 2.672-1.86 2.672-1.03 0-1.858-1.203-1.858-2.672 0-1.485.828-2.672 1.859-2.672 1.015-.016 1.86 1.188 1.86 2.672z" fill="#fff"></path>
    <path d="M26.297 13.444c0 .984-.563 1.781-1.235 1.781-.687 0-1.234-.796-1.234-1.78 0-.985.563-1.782 1.235-1.782.687 0 1.234.797 1.234 1.781zm-5.907 2.344a.47.47 0 01-.468.468.47.47 0 01-.469-.468.46.46 0 01.469-.469.47.47 0 01.469.469zm-1.546 1.172c-.032-.078.015-.157.093-.188.079-.031.157.016.188.094a.84.84 0 00.797.563c.36 0 .672-.235.797-.563.031-.078.11-.125.187-.094.078.032.125.11.094.188a1.147 1.147 0 01-1.078.765c-.485 0-.922-.312-1.078-.765z" fill="#AF5C51"></path>
    <path d="M8.516 19.085c0 .125-.141.218-.329.218-.171 0-.328-.093-.328-.218s.141-.219.329-.219c.187 0 .328.094.328.219zm.906.5c0 .125-.14.218-.328.218-.172 0-.328-.093-.328-.218s.14-.22.328-.22c.187 0 .328.095.328.22zm.547.655c0 .126-.14.22-.328.22-.172 0-.329-.094-.329-.22 0-.124.141-.218.329-.218.187-.015.328.094.328.219zm.5.751c0 .125-.14.219-.328.219-.172 0-.329-.094-.329-.219s.141-.219.329-.219c.187-.015.328.094.328.219zm.547.687c0 .125-.141.22-.329.22-.171 0-.328-.095-.328-.22s.141-.218.329-.218c.187 0 .328.093.328.218zm.75.61c0 .125-.141.218-.329.218-.171 0-.328-.093-.328-.218s.141-.219.329-.219c.187-.016.328.094.328.219zm1.047.39c0 .125-.141.22-.329.22-.171 0-.328-.095-.328-.22s.14-.218.328-.218.329.093.329.218zm1.047 0c0 .125-.141.22-.329.22-.172 0-.328-.095-.328-.22s.14-.218.328-.218.328.093.328.218zm1.062-.171c0 .125-.14.218-.328.218-.172 0-.328-.093-.328-.218s.14-.22.328-.22c.172 0 .328.095.328.22z" fill="#C4E5D9"></path>
  </symbol>
  <symbol fill="none" xmlns="http://www.w3.org/2000/svg" viewBox="0 0 40 41" id="gitlab">
    <path d="M39.246 18.303L21.78.839a2.576 2.576 0 00-3.643 0l-3.626 3.627 4.6 4.6a3.058 3.058 0 013.874 3.9L27.42 17.4a3.064 3.064 0 013.167 5.062 3.065 3.065 0 01-5.003-3.334l-4.135-4.135v10.881a3.065 3.065 0 11-2.52-.09v-10.98a3.064 3.064 0 01-1.664-4.02L12.73 6.248.755 18.222a2.577 2.577 0 000 3.644L18.219 39.33a2.576 2.576 0 003.643 0l17.384-17.383a2.578 2.578 0 000-3.644" fill="#DE4C36"></path>
  </symbol>
  <symbol fill="none" xmlns="http://www.w3.org/2000/svg" viewBox="0 0 40 46" id="html">
    <path d="M3.64 40.913L0 .084h40l-3.645 40.821-16.38 4.541L3.64 40.912z" fill="#E44F26"></path>
    <path d="M20 41.553l13.236-3.67L36.35 3H20v38.553z" fill="#F1662A"></path>
    <path d="M20 18.565h-6.626l-.457-5.128H20V8.43H7.445l.12 1.345 1.23 13.798H20v-5.007zm0 13.005l-.022.006-5.576-1.505-.357-3.994H9.018l.702 7.86 10.258 2.85.023-.007v-5.21z" fill="#EBEBEB"></path>
    <path d="M19.982 18.565v5.008h6.166l-.58 6.495-5.586 1.507v5.21l10.267-2.847.074-.845L31.5 19.91l.123-1.345h-11.64zm0-10.135v5.007h12.096l.1-1.124.229-2.539.12-1.345H19.981z" fill="#fff"></path>
  </symbol>
  <symbol fill="none" xmlns="http://www.w3.org/2000/svg" viewBox="0 0 40 41" id="javascript">
    <path d="M0 .085h40v40H0v-40z" fill="#F7DF1E"></path>
    <path d="M10.518 33.511l3.06-1.852c.591 1.047 1.128 1.933 2.417 1.933 1.235 0 2.014-.483 2.014-2.363V18.45h3.759v12.833c0 3.894-2.282 5.666-5.612 5.666-3.007 0-4.753-1.557-5.639-3.437m13.293-.403l3.06-1.773c.806 1.316 1.853 2.283 3.706 2.283 1.557 0 2.55-.779 2.55-1.853 0-1.289-1.02-1.745-2.738-2.497l-.94-.403c-2.712-1.154-4.51-2.604-4.51-5.665 0-2.82 2.147-4.968 5.504-4.968 2.39 0 4.108.833 5.343 3.008l-2.927 1.88c-.644-1.155-1.342-1.611-2.416-1.611-1.101 0-1.8.698-1.8 1.61 0 1.128.699 1.585 2.31 2.283l.94.403c3.195 1.37 4.994 2.765 4.994 5.906 0 3.384-2.659 5.236-6.23 5.236-3.49 0-5.746-1.664-6.846-3.84" fill="#000"></path>
  </symbol>
  <symbol fill="none" xmlns="http://www.w3.org/2000/svg" viewBox="0 0 40 39" id="jquery">
    <path d="M2.543 9.048c-3.546 5.091-3.103 11.707-.398 17.111.065.137.13.26.195.384.039.085.085.17.13.248a.974.974 0 00.08.137c.044.091.09.169.136.254l.26.443c.045.085.098.162.15.241.091.157.202.313.293.47.045.065.085.13.13.195.163.254.34.502.522.743.13.177.26.352.398.528.045.06.098.124.144.19l.372.449c.045.052.085.111.136.163.163.195.34.391.508.58 0 .006.007.006.007.013.215.268.449.514.71.737.137.136.268.274.41.404l.17.163c.183.176.365.345.56.514.007 0 .007 0 .013.007l.091.078c.17.15.346.3.522.437l.21.177c.136.111.286.221.43.333l.228.176c.156.118.319.228.475.346.06.038.118.085.183.117l.045.039.47.313.2.13c.242.156.49.307.73.457.072.032.137.071.202.111.183.104.372.21.555.307.097.059.201.104.306.156.124.072.254.137.384.21.035.007.068.02.098.038l.156.079c.202.097.411.195.626.286.04.02.085.033.13.06.242.103.476.208.73.306.053.013.111.045.17.065.227.085.462.169.69.254l.079.026c.26.092.508.17.77.255.058.012.123.038.182.052.268.085.522.177.789.228 17.124 3.123 22.097-10.293 22.097-10.293-4.178 5.443-11.597 6.877-18.623 5.28-.26-.059-.514-.144-.782-.221a25.106 25.106 0 01-.945-.3l-.104-.04a28.696 28.696 0 01-.665-.247c-.058-.026-.123-.045-.182-.072a22.027 22.027 0 01-.724-.3c-.052-.02-.091-.045-.144-.065a27.207 27.207 0 01-.605-.28 2.392 2.392 0 01-.177-.092c-.156-.071-.313-.156-.47-.235-.103-.053-.208-.104-.306-.157l-.567-.312a1.854 1.854 0 00-.189-.112c-.248-.15-.49-.3-.73-.45-.065-.038-.13-.084-.195-.13a15.19 15.19 0 01-.522-.345 2.497 2.497 0 01-.168-.124 8.844 8.844 0 01-.496-.351c-.072-.06-.144-.112-.222-.17-.144-.11-.293-.22-.437-.345l-.201-.156c-.189-.15-.372-.307-.554-.47-.02-.02-.04-.032-.066-.052l-.573-.522-.169-.156c-.136-.144-.274-.274-.416-.41l-.163-.17a13.196 13.196 0 01-.515-.54l-.026-.027c-.176-.189-.345-.392-.522-.587-.045-.052-.085-.111-.13-.162l-.378-.464a21.399 21.399 0 01-.567-.75C3.585 18.913 2.177 11.573 5.294 5.55L2.543 9.048zm10.99-4.29c-2.568 3.69-2.426 8.618-.424 12.516.333.652.71 1.284 1.127 1.89.385.548.809 1.2 1.323 1.643.177.202.372.398.574.6l.15.15c.189.183.384.366.587.54l.026.027c.221.195.45.384.69.567.053.039.105.085.157.124.236.176.47.352.711.522l.026.02c.104.071.216.144.333.215.045.033.098.072.15.098.177.117.352.221.529.333.032.012.052.026.079.038.15.092.319.177.475.26.053.033.104.06.163.092.111.053.221.112.325.17l.06.02c.22.11.448.214.677.318.235.103.472.2.711.293.085.027.163.059.242.085.169.065.352.124.522.183l.228.071c.247.08.495.177.75.216C36.943 27.939 40 17.764 40 17.764c-2.757 3.963-8.083 5.853-13.767 4.38-.254-.065-.502-.144-.75-.221-.079-.02-.15-.045-.228-.065-.169-.066-.351-.124-.514-.183l-.242-.092c-.189-.078-.378-.143-.56-.227-.06-.027-.112-.04-.15-.066a22.575 22.575 0 01-.698-.319l-.345-.182-.195-.098a7.084 7.084 0 01-.443-.248 1.583 1.583 0 01-.104-.059c-.177-.111-.358-.215-.529-.332a1.335 1.335 0 01-.162-.104l-.346-.222c-.241-.169-.475-.352-.717-.522a1.298 1.298 0 00-.156-.13c-2.497-1.969-4.466-4.655-5.405-7.692-.983-3.162-.762-6.707.933-9.582l-2.089 2.958zm9.244-3.206c-1.512 2.223-1.662 4.986-.62 7.438 1.108 2.6 3.377 4.648 6.017 5.612.111.045.215.079.325.118l.144.045c.157.045.313.104.47.144 7.3 1.408 9.275-3.755 9.81-4.51-1.74 2.496-4.654 3.096-8.232 2.228a10.965 10.965 0 01-1.891-.692 11.38 11.38 0 01-1.8-1.101C23.792 8.402 21.81 3.774 23.904 0l-1.127 1.552z" fill="#0769AD"></path>
  </symbol>
  <symbol fill="none" xmlns="http://www.w3.org/2000/svg" viewBox="0 0 40 36" id="react">
    <path d="M32.888 11.62a26.716 26.716 0 00-1.287-.406c.072-.297.139-.59.198-.879.975-4.73.338-8.543-1.838-9.798-2.087-1.203-5.5.052-8.946 3.051-.34.296-.672.601-.997.914a24.424 24.424 0 00-.662-.612C15.744.683 12.123-.669 9.949.59 7.864 1.797 7.247 5.38 8.124 9.864c.088.444.186.886.296 1.325-.513.146-1.007.3-1.48.466C2.705 13.13 0 15.445 0 17.845c0 2.48 2.903 4.966 7.314 6.473.358.122.719.235 1.082.338-.118.473-.223.95-.314 1.428-.837 4.407-.184 7.905 1.896 9.104 2.147 1.239 5.752-.034 9.261-3.102.285-.25.563-.506.835-.77.35.34.711.669 1.081.987 3.4 2.926 6.757 4.107 8.834 2.904 2.146-1.242 2.843-5 1.938-9.573a22.569 22.569 0 00-.24-1.069c.253-.075.502-.152.744-.232C37.016 22.813 40 20.357 40 17.845c0-2.409-2.792-4.738-7.112-6.225zm-.995 11.09c-.218.073-.443.143-.671.211-.507-1.603-1.19-3.307-2.026-5.067a40.075 40.075 0 001.947-4.994c.409.119.806.244 1.189.375 3.701 1.275 5.96 3.159 5.96 4.61 0 1.546-2.44 3.554-6.399 4.866zm-1.642 3.256c.4 2.022.457 3.85.192 5.28-.238 1.284-.717 2.14-1.31 2.483-1.26.73-3.956-.22-6.863-2.721-.344-.296-.68-.602-1.006-.917 1.127-1.233 2.253-2.666 3.353-4.257a40.123 40.123 0 005.417-.835c.082.329.154.652.217.967zm-16.614 7.636c-1.232.435-2.213.448-2.806.106-1.261-.728-1.786-3.537-1.07-7.305.085-.445.182-.888.292-1.328 1.638.363 3.452.623 5.39.78a41.596 41.596 0 003.434 4.242c-.248.24-.503.475-.762.702-1.552 1.357-3.107 2.32-4.478 2.803zm-5.77-10.9c-1.95-.667-3.561-1.534-4.665-2.48-.992-.849-1.493-1.692-1.493-2.377 0-1.456 2.171-3.314 5.793-4.577.44-.153.9-.298 1.377-.433a40.83 40.83 0 001.95 5.052 41.63 41.63 0 00-1.975 5.123 21.14 21.14 0 01-.987-.309zM9.801 9.535c-.751-3.842-.252-6.74 1.004-7.467 1.338-.775 4.297.33 7.416 3.099.204.18.404.366.6.554a40.948 40.948 0 00-3.407 4.217 41.74 41.74 0 00-5.338.83c-.102-.41-.193-.82-.275-1.233zm17.255 4.26a54.364 54.364 0 00-1.217-2c1.276.161 2.5.375 3.647.637a36.505 36.505 0 01-1.28 3.445 59.595 59.595 0 00-1.15-2.082zm-7.037-6.853a36.555 36.555 0 012.354 2.842 50.315 50.315 0 00-4.728-.001 37.725 37.725 0 012.374-2.841zm-7.081 6.865c-.393.68-.77 1.37-1.13 2.068a37.704 37.704 0 01-1.27-3.46 38.577 38.577 0 013.626-.623 50.17 50.17 0 00-1.226 2.015zM14.2 24.019a36.386 36.386 0 01-3.686-.592 38.05 38.05 0 011.297-3.532 50.226 50.226 0 002.39 4.124zm5.866 4.849a38.316 38.316 0 01-2.406-2.88c.766.03 1.546.045 2.34.045.815 0 1.621-.018 2.415-.054a36.365 36.365 0 01-2.349 2.889zm8.156-9.034a36.235 36.235 0 011.343 3.518c-1.16.265-2.411.478-3.73.637.422-.67.831-1.35 1.227-2.036a54.23 54.23 0 001.16-2.12zm-2.64 1.266a56.071 56.071 0 01-1.919 3.096c-1.219.086-2.44.129-3.663.128a56.52 56.52 0 01-3.622-.114 48.033 48.033 0 01-3.662-6.324 48.015 48.015 0 013.641-6.312 48.124 48.124 0 017.291.001 51.445 51.445 0 011.928 3.077 56.043 56.043 0 011.725 3.21 51.498 51.498 0 01-1.719 3.238zm3.525-19.082c1.34.772 1.86 3.887 1.019 7.973-.054.26-.114.526-.18.795a40.905 40.905 0 00-5.348-.845 40.133 40.133 0 00-3.382-4.22c.3-.289.607-.57.92-.844 2.954-2.57 5.713-3.584 6.971-2.86zM20 14.273a3.572 3.572 0 110 7.144 3.572 3.572 0 010-7.144z" fill="#00D8FF"></path>
  </symbol>
  <symbol fill="none" xmlns="http://www.w3.org/2000/svg" viewBox="0 0 40 31" id="sass">
    <path d="M34.348 17.352a8.256 8.256 0 00-3.614.838c-.371-.736-.743-1.391-.809-1.872-.072-.561-.16-.904-.072-1.574.087-.67.48-1.625.473-1.698-.007-.072-.087-.415-.889-.422-.801-.008-1.493.153-1.574.364a8.8 8.8 0 00-.335 1.188c-.138.728-1.602 3.33-2.44 4.692-.27-.532-.503-.998-.554-1.37-.073-.56-.16-.903-.073-1.574.088-.67.48-1.624.474-1.697-.008-.073-.088-.416-.89-.423-.8-.007-1.493.153-1.573.364-.08.212-.168.707-.335 1.188-.168.48-2.113 4.823-2.623 5.945-.206.454-.422.904-.649 1.348 0 0-.007.022-.029.058-.07.14-.144.278-.218.416v.007c-.11.197-.226.379-.284.379-.044 0-.124-.525.014-1.239.291-1.508.984-3.854.976-3.934 0-.044.131-.452-.451-.663-.569-.211-.773.138-.824.138-.05 0-.087.124-.087.124s.634-2.637-1.21-2.637c-1.15 0-2.74 1.26-3.526 2.397-.895.486-1.788.975-2.681 1.464-.43.24-.874.481-1.29.707-.029-.03-.058-.066-.087-.095-2.23-2.382-6.354-4.065-6.179-7.264.066-1.166.467-4.226 7.92-7.941 6.135-3.024 11.016-2.186 11.862-.328 1.21 2.652-2.616 7.577-8.955 8.29-2.419.27-3.687-.662-4.007-1.012-.335-.364-.386-.386-.51-.313-.204.11-.073.437 0 .627.19.495.969 1.37 2.288 1.8 1.165.378 4 .59 7.431-.737 3.84-1.486 6.842-5.617 5.96-9.078-.881-3.512-6.71-4.67-12.226-2.71C9.474 2.27 5.918 4.106 3.361 6.496.323 9.338-.16 11.808.038 12.842c.707 3.672 5.771 6.062 7.796 7.833-.102.058-.196.11-.276.153-1.013.503-4.875 2.52-5.837 4.655-1.092 2.42.175 4.154 1.013 4.387 2.601.721 5.275-.576 6.71-2.718 1.436-2.142 1.261-4.925.598-6.2-.007-.015-.014-.03-.03-.044.263-.153.533-.313.795-.466.482-.285.97-.56 1.465-.824-.248.678-.43 1.487-.518 2.652-.11 1.37.452 3.148 1.188 3.847.328.306.714.314.962.314.86 0 1.246-.714 1.675-1.56.525-1.034.999-2.236.999-2.236s-.59 3.25 1.012 3.25c.583 0 1.173-.759 1.436-1.145v.008l.043-.073.095-.153v-.015a63.09 63.09 0 001.537-2.87c1.006-1.982 1.975-4.46 1.975-4.46s.088.605.386 1.61c.175.59.54 1.24.83 1.866-.232.328-.378.51-.378.51l.007.007c-.19.248-.393.517-.62.78-.793.947-1.74 2.033-1.872 2.346-.153.371-.116.641.175.86.212.16.59.182.976.16.715-.051 1.217-.226 1.465-.335a4.91 4.91 0 001.26-.663c.78-.576 1.253-1.4 1.21-2.485-.022-.597-.219-1.195-.46-1.756.074-.102.14-.204.212-.306 1.232-1.8 2.186-3.774 2.186-3.774s.087.605.386 1.61c.146.51.445 1.064.707 1.603-1.159.94-1.873 2.033-2.128 2.747-.459 1.326-.102 1.924.576 2.062.306.066.743-.08 1.064-.219a4.839 4.839 0 001.348-.692c.78-.575 1.53-1.377 1.486-2.462-.022-.496-.153-.984-.335-1.458.983-.407 2.251-.633 3.869-.444 3.468.408 4.153 2.572 4.021 3.483-.13.91-.86 1.406-1.1 1.559-.24.153-.32.204-.298.313.029.16.145.153.35.124.284-.05 1.82-.736 1.886-2.412.11-2.142-1.93-4.48-5.537-4.459zm-26.754 9.02C6.443 27.625 4.84 28.1 4.148 27.698c-.743-.43-.452-2.28.961-3.606.86-.809 1.968-1.56 2.704-2.018.167-.102.415-.248.714-.43.05-.03.08-.044.08-.044l.175-.11c.517 1.895.021 3.564-1.188 4.882zm8.379-5.697c-.4.976-1.239 3.475-1.749 3.337-.437-.117-.707-2.011-.087-3.884.313-.94.976-2.062 1.362-2.499.627-.7 1.319-.933 1.486-.648.212.371-.764 3.082-1.012 3.694zm6.914 3.308c-.167.087-.328.145-.4.102-.051-.03.072-.146.072-.146s.867-.933 1.21-1.355c.197-.248.43-.54.678-.867v.094c0 1.115-1.079 1.866-1.56 2.172zm5.334-1.217c-.124-.088-.102-.38.313-1.29.16-.357.539-.954 1.188-1.53.072.233.123.46.116.67-.007 1.407-1.013 1.931-1.617 2.15z" fill="#CD6799"></path>
  </symbol>
  <symbol fill="none" xmlns="http://www.w3.org/2000/svg" viewBox="0 0 256 290" id="webpack">
    <path d="M128 .048l128 72.405V217.31l-128 72.405L0 217.31V72.453L128 .048z" fill="#fff"></path>
    <path d="M233.153 212.287l-100.902 57.14V224.99l62.889-34.632 38.013 21.929zm6.907-6.231V86.654l-36.902 21.3v76.8l36.902 21.302zm-217.6 6.23l100.903 57.094v-44.438l-62.889-34.584-38.014 21.929v-.001zm-6.907-6.23V86.654l36.903 21.3v76.8l-36.903 21.302zm4.3-127.13l103.51-58.543v42.99L57.045 99.84l-.532.29-36.66-21.205v.001zm215.86 0L132.251 20.382v42.99l66.27 36.515.531.29 36.661-21.253v.002z" fill="#8ED6FB"></path>
    <path d="M123.363 214.847l-62.02-34.15v-67.574l62.02 35.792v65.932zm8.888 0l62.02-34.101v-67.623l-62.02 35.792v65.932zM65.497 105.298l62.31-34.246 62.26 34.246-62.26 35.937-62.31-35.937z" fill="#1C78C0"></path>
  </symbol>
</svg>