<svg width="40" height="41" viewBox="0 0 40 41" fill="none" xmlns="http://www.w3.org/2000/svg">
<path d="M0 34.9269C0 37.7757 2.30922 40.0846 5.15766 40.0846H34.8422C37.6911 40.0846 40 37.7754 40 34.9269V5.24241C40 2.3935 37.6908 0.0845947 34.8423 0.0845947H5.15781C2.30891 0.0845947 0 2.39381 0 5.24225V34.9268V34.9269Z" fill="#563D7C"/>
<path d="M16.5872 17.778V12.1135H21.5733C22.0483 12.1135 22.5061 12.153 22.947 12.2323C23.388 12.3113 23.7781 12.4526 24.1173 12.6562C24.4564 12.8598 24.7278 13.1424 24.9314 13.5041C25.1348 13.866 25.2367 14.3296 25.2367 14.8948C25.2367 15.9124 24.9314 16.6474 24.3208 17.0996C23.7103 17.5519 22.9302 17.778 21.9803 17.778H16.5872V17.778ZM11.2617 7.97522V32.194H22.998C24.0834 32.194 25.1406 32.0583 26.1695 31.7869C27.1984 31.5155 28.1142 31.0973 28.917 30.5319C29.7197 29.9666 30.3586 29.2372 30.8334 28.3441C31.3084 27.4508 31.5458 26.3937 31.5458 25.1726C31.5458 23.6574 31.1783 22.3629 30.4434 21.2888C29.7084 20.2146 28.5947 19.4627 27.1022 19.033C28.1877 18.513 29.0075 17.8458 29.5616 17.0318C30.1155 16.2177 30.3925 15.2002 30.3925 13.979C30.3925 12.8483 30.2059 11.8987 29.8328 11.1298C29.4597 10.361 28.9339 9.74475 28.2555 9.28116C27.5772 8.81756 26.7631 8.48397 25.8133 8.28053C24.8636 8.07694 23.812 7.97522 22.6588 7.97522H11.2617V7.97522ZM16.5872 28.0557V21.4074H22.3873C23.5406 21.4074 24.4678 21.673 25.1689 22.2046C25.8698 22.736 26.2205 23.6235 26.2205 24.8672C26.2205 25.5005 26.113 26.0205 25.8981 26.4276C25.6833 26.8346 25.395 27.1569 25.0331 27.3943C24.6714 27.6318 24.253 27.8013 23.7781 27.9032C23.3031 28.0048 22.8058 28.0557 22.2856 28.0557H16.5872V28.0557Z" fill="white"/>
</svg>
