<svg width="40" height="45" viewBox="0 0 40 45" fill="none" xmlns="http://www.w3.org/2000/svg">
<path d="M39.9977 13.2172C39.9974 12.4613 39.8357 11.7933 39.5088 11.22C39.1877 10.6563 38.7067 10.1838 38.0616 9.81023C32.7365 6.73977 27.4063 3.6787 22.083 0.605106C20.6478 -0.22343 19.2563 -0.193224 17.8318 0.647205C15.7123 1.89721 5.10048 7.97694 1.93831 9.80851C0.636035 10.5624 0.00234757 11.7161 0.00203456 13.2158C0 19.3907 0.00203456 25.5654 0 31.7404C0.000313009 32.4798 0.155096 33.1347 0.467636 33.6994C0.78894 34.2802 1.27661 34.7657 1.93659 35.1477C5.09892 36.9793 15.7121 43.0585 17.8312 44.3089C19.2563 45.1498 20.6478 45.1798 22.0834 44.351C27.4069 41.2772 32.7375 38.2163 38.0633 35.1458C38.7233 34.764 39.211 34.2782 39.5323 33.6978C39.8443 33.1332 39.9994 32.4782 39.9998 31.7387C39.9998 31.7387 39.9998 19.3922 39.9977 13.2172" fill="#5C8DBC"/>
<path d="M20.0612 22.4181L0.467773 33.6996C0.789077 34.2804 1.27675 34.7658 1.93673 35.1479C5.09906 36.9794 15.7123 43.0587 17.8313 44.309C19.2565 45.1499 20.6479 45.18 22.0836 44.3511C27.4071 41.2774 32.7376 38.2164 38.0635 35.146C38.7234 34.7641 39.2111 34.2783 39.5324 33.698L20.0612 22.4181" fill="#1A4674"/>
<path d="M14.2578 25.7598C15.3979 27.7502 17.5413 29.0927 20 29.0927C22.4738 29.0927 24.6294 27.7331 25.7637 25.7214L20.0612 22.4181L14.2578 25.7598" fill="#1A4674"/>
<path d="M39.9979 13.2172C39.9976 12.4613 39.8359 11.7934 39.509 11.2201L20.0613 22.418L39.5325 33.6979C39.8446 33.1332 39.9996 32.4783 40 31.7388C40 31.7388 40 19.3923 39.9979 13.2172" fill="#1B598E"/>
<path d="M38.9273 23.2243H37.4058V24.7462H35.8839V23.2243H34.3625V21.7029H35.8839V20.1814H37.4058V21.7029H38.9273V23.2243Z" fill="white"/>
<path d="M33.3752 23.2243H31.8539V24.7462H30.3323V23.2243H28.8108V21.7029H30.3323V20.1814H31.8539V21.7029H33.3752V23.2243Z" fill="white"/>
<path d="M25.7634 25.7214C24.629 27.7331 22.4735 29.0926 19.9996 29.0926C17.5409 29.0926 15.3976 27.7501 14.2575 25.7597C13.6847 24.7609 13.3839 23.6294 13.3851 22.4781C13.3851 18.8251 16.3467 15.8638 19.9996 15.8638C22.4425 15.8638 24.5746 17.1895 25.7203 19.1596L31.5018 15.8304C29.2038 11.8637 24.9136 9.19495 19.9996 9.19495C12.6633 9.19495 6.71631 15.1421 6.71631 22.4781C6.71631 24.8848 7.35657 27.1418 8.47558 29.0886C10.7677 33.0763 15.0702 35.7614 19.9996 35.7614C24.9381 35.7614 29.2473 33.0655 31.5362 29.066L25.7634 25.7214Z" fill="white"/>
</svg>
