<svg width="31" height="36" viewBox="0 0 31 36" fill="none" xmlns="http://www.w3.org/2000/svg">
<path d="M2.8075 32.0858L0 0.584595H30.86L28.0487 32.0808L15.4112 35.5846L2.8075 32.0858Z" fill="#1572B6"/>
<path d="M15.4299 32.9071L25.6424 30.0759L28.0449 3.16089H15.4299V32.9071Z" fill="#33A9DC"/>
<path d="M15.4299 14.5734H20.5424L20.8949 10.6172H15.4299V6.75342H25.1174L25.0249 7.78967L24.0762 18.4372H15.4299V14.5734Z" fill="white"/>
<path d="M15.4537 24.6072L15.4362 24.6122L11.1337 23.4497L10.8587 20.3684H6.97998L7.52123 26.4347L15.435 28.6322L15.4537 28.6272V24.6072Z" fill="#EBEBEB"/>
<path d="M20.2137 18.2733L19.7487 23.4471L15.4399 24.6096V28.6296L23.3599 26.4346L23.4187 25.7821L24.0899 18.2733H20.2137Z" fill="white"/>
<path d="M15.4436 6.75342V10.6172H6.11114L6.03364 9.74842L5.85739 7.78967L5.76489 6.75342H15.4436Z" fill="#EBEBEB"/>
<path d="M15.4299 14.5734V18.4371H11.1812L11.1037 17.5684L10.9287 15.6096L10.8362 14.5734H15.4299Z" fill="#EBEBEB"/>
</svg>
