<svg width="27" height="41" viewBox="0 0 27 41" fill="none" xmlns="http://www.w3.org/2000/svg">
<path d="M19.9999 26.7513C23.6818 26.7513 26.6666 23.7665 26.6666 20.0846C26.6666 16.4027 23.6818 13.418 19.9999 13.418C16.318 13.418 13.3333 16.4027 13.3333 20.0846C13.3333 23.7665 16.318 26.7513 19.9999 26.7513Z" fill="#19BCFE"/>
<path fill-rule="evenodd" clip-rule="evenodd" d="M6.66667 40.0846C8.43478 40.0846 10.1305 39.3822 11.3807 38.1319C12.631 36.8817 13.3333 35.186 13.3333 33.4179V26.7512H6.66667C4.89856 26.7512 3.20286 27.4536 1.95262 28.7038C0.702379 29.9541 0 31.6498 0 33.4179C0 35.186 0.702379 36.8817 1.95262 38.1319C3.20286 39.3822 4.89856 40.0846 6.66667 40.0846Z" fill="#09CF83"/>
<path fill-rule="evenodd" clip-rule="evenodd" d="M6.66667 26.7513H13.3333V13.418H6.66667C4.89856 13.418 3.20286 14.1203 1.95262 15.3706C0.702379 16.6208 0 18.3165 0 20.0846C0 21.8527 0.702379 23.5484 1.95262 24.7987C3.20286 26.0489 4.89856 26.7513 6.66667 26.7513Z" fill="#A259FF"/>
<path fill-rule="evenodd" clip-rule="evenodd" d="M6.66667 13.4179H13.3333V0.0845947H6.66667C4.89856 0.0845947 3.20286 0.786974 1.95262 2.03722C0.702379 3.28746 0 4.98315 0 6.75126C0 8.51937 0.702379 10.2151 1.95262 11.4653C3.20286 12.7156 4.89856 13.4179 6.66667 13.4179Z" fill="#F24E1E"/>
<path fill-rule="evenodd" clip-rule="evenodd" d="M19.9999 13.4179H13.3333V0.0845947H19.9999C21.768 0.0845947 23.4637 0.786974 24.714 2.03722C25.9642 3.28746 26.6666 4.98315 26.6666 6.75126C26.6666 8.51937 25.9642 10.2151 24.714 11.4653C23.4637 12.7156 21.768 13.4179 19.9999 13.4179Z" fill="#FF7262"/>
</svg>
