<svg width="40" height="36" viewBox="0 0 40 36" fill="none" xmlns="http://www.w3.org/2000/svg">
<path d="M31.3906 31.3035C31.3906 33.4753 26.3594 35.2253 20.1562 35.2253C13.9531 35.2253 8.92188 33.4597 8.92188 31.3035C8.92188 29.1316 13.9531 27.3816 20.1562 27.3816C26.3594 27.3816 31.3906 29.1316 31.3906 31.3035Z" fill="#9EDCF2"/>
<path d="M31.3906 31.3035C31.3906 33.4753 26.3594 35.2253 20.1562 35.2253C13.9531 35.2253 8.92188 33.4597 8.92188 31.3035C8.92188 29.1316 13.9531 27.3816 20.1562 27.3816C26.3594 27.3816 31.3906 29.1316 31.3906 31.3035Z" fill="#7DBCE7"/>
<path d="M7.32805 19.7565L6.99992 20.8815C6.99992 20.8815 6.9218 21.2877 7.2968 21.3659C7.70305 21.3502 7.6718 20.9752 7.64055 20.8659L7.32805 19.7565Z" fill="#9EDCF2"/>
<path d="M39.9688 15.0222L40 14.8815C36.7031 14.2253 33.3281 14.2097 31.2812 14.3034C31.6094 13.1003 31.7188 11.694 31.7188 10.1472C31.7188 7.91278 30.875 6.13153 29.5312 4.78778C29.7656 4.02216 30.0781 2.31903 29.2188 0.147157C29.2188 0.147157 27.6875 -0.337218 24.2031 1.99091C22.8438 1.64716 21.3906 1.47528 19.9375 1.47528C18.3438 1.47528 16.7344 1.67841 15.2188 2.08466C11.625 -0.368468 10.0469 0.131532 10.0469 0.131532C9.01563 2.70966 9.65625 4.63153 9.84375 5.10028C8.625 6.41278 7.89062 8.08466 7.89062 10.1315C7.89062 11.6784 8.0625 13.069 8.5 14.2722C6.4375 14.194 3.1875 14.2253 0 14.8659L0.03125 15.0065C3.21875 14.3659 6.5 14.3503 8.54688 14.4284C8.64062 14.6784 8.75 14.9284 8.85938 15.1628C6.82812 15.2253 3.375 15.4909 0.0625 16.4284L0.109375 16.569C3.45312 15.6315 6.9375 15.3815 8.95312 15.319C10.1719 17.569 12.5469 19.0378 16.7969 19.4909C16.1875 19.8972 15.5781 20.5847 15.3281 21.7565C14.5 22.1472 11.9062 23.1159 10.3438 20.4284C10.3438 20.4284 9.46875 18.8347 7.79688 18.7097C7.79688 18.7097 6.17188 18.6784 7.6875 19.7253C7.6875 19.7253 8.76562 20.2409 9.51562 22.1628C9.51562 22.1628 10.5 25.444 15.2031 24.3815V27.7409C15.2031 27.7409 15.1094 28.944 14 29.3347C14 29.3347 13.3438 29.7878 14.0469 30.0378C14.0469 30.0378 17.0938 30.2878 17.0938 27.7878V24.1003C17.0938 24.1003 16.9688 22.6315 17.6875 22.1315V28.194C17.6875 28.194 17.6406 29.6472 16.8906 30.194C16.8906 30.194 16.3906 31.0847 17.4844 30.8503C17.4844 30.8503 19.5781 30.5534 19.6719 28.1003L19.7188 21.9597H20.2188L20.2656 28.1003C20.3594 30.5378 22.4531 30.8503 22.4531 30.8503C23.5469 31.1003 23.0469 30.194 23.0469 30.194C22.2969 29.6472 22.25 28.194 22.25 28.194V22.1784C22.9687 22.7409 22.8438 24.1003 22.8438 24.1003V27.7878C22.8438 30.2878 25.8906 30.0378 25.8906 30.0378C26.5938 29.7878 25.9375 29.3347 25.9375 29.3347C24.8438 28.9284 24.7344 27.7409 24.7344 27.7409V22.8972C24.7344 21.0065 23.9375 20.0065 23.1562 19.4909C27.6875 19.0378 29.8594 17.5847 30.8594 15.3034C32.8438 15.3503 36.4219 15.6003 39.8281 16.569L39.875 16.4284C36.4844 15.4753 32.9375 15.2253 30.9219 15.1628C31.0156 14.9284 31.0938 14.694 31.1719 14.444C33.2656 14.3659 36.6562 14.3659 39.9688 15.0222Z" fill="#010101"/>
<path d="M27.2813 10.0377C28.25 10.9283 28.8281 11.9908 28.8281 13.1315C28.8281 18.5065 24.8281 18.6471 19.8906 18.6471C14.9531 18.6471 10.9531 17.8971 10.9531 13.1315C10.9531 11.9908 11.5156 10.9283 12.4844 10.0533C14.0938 8.58459 16.8125 9.36584 19.8906 9.36584C22.9688 9.36584 25.6719 8.56896 27.2813 10.0377Z" fill="#F5CCB3"/>
<path d="M16.9219 13.4129C16.9219 14.8972 16.0938 16.0847 15.0625 16.0847C14.0313 16.0847 13.2031 14.8816 13.2031 13.4129C13.2031 11.9285 14.0313 10.741 15.0625 10.741C16.0938 10.7254 16.9219 11.9285 16.9219 13.4129Z" fill="white"/>
<path d="M16.3281 13.4441C16.3281 14.4285 15.7656 15.2253 15.0938 15.2253C14.4063 15.2253 13.8594 14.4285 13.8594 13.4441C13.8594 12.4597 14.4219 11.6628 15.0938 11.6628C15.7656 11.6628 16.3281 12.4597 16.3281 13.4441Z" fill="#AF5C51"/>
<path d="M26.9063 13.4129C26.9063 14.8972 26.0781 16.0847 25.0469 16.0847C24.0156 16.0847 23.1875 14.8816 23.1875 13.4129C23.1875 11.9285 24.0156 10.741 25.0469 10.741C26.0625 10.7254 26.9063 11.9285 26.9063 13.4129Z" fill="white"/>
<path d="M26.2969 13.4441C26.2969 14.4285 25.7344 15.2253 25.0625 15.2253C24.375 15.2253 23.8281 14.4285 23.8281 13.4441C23.8281 12.4597 24.3906 11.6628 25.0625 11.6628C25.75 11.6628 26.2969 12.4597 26.2969 13.4441Z" fill="#AF5C51"/>
<path d="M20.3906 15.7877C20.3906 16.0377 20.1875 16.2565 19.9219 16.2565C19.6719 16.2565 19.4531 16.0533 19.4531 15.7877C19.4531 15.5221 19.6562 15.319 19.9219 15.319C20.1719 15.319 20.3906 15.5221 20.3906 15.7877Z" fill="#AF5C51"/>
<path d="M18.8438 16.9597C18.8125 16.8816 18.8594 16.8035 18.9375 16.7722C19.0156 16.741 19.0938 16.7879 19.125 16.866C19.25 17.2097 19.5625 17.4285 19.9219 17.4285C20.2813 17.4285 20.5938 17.1941 20.7188 16.866C20.75 16.7879 20.8281 16.741 20.9063 16.7722C20.9844 16.8035 21.0313 16.8816 21 16.9597C20.8438 17.4129 20.4063 17.7254 19.9219 17.7254C19.4375 17.7254 19 17.4129 18.8438 16.9597Z" fill="#AF5C51"/>
<path d="M8.51562 19.0847C8.51562 19.2097 8.375 19.3035 8.1875 19.3035C8.01563 19.3035 7.85938 19.2097 7.85938 19.0847C7.85938 18.9597 8 18.866 8.1875 18.866C8.375 18.866 8.51562 18.9597 8.51562 19.0847Z" fill="#C4E5D9"/>
<path d="M9.42188 19.5846C9.42188 19.7096 9.28125 19.8033 9.09375 19.8033C8.92188 19.8033 8.76562 19.7096 8.76562 19.5846C8.76562 19.4596 8.90625 19.3658 9.09375 19.3658C9.28125 19.3658 9.42188 19.4596 9.42188 19.5846Z" fill="#C4E5D9"/>
<path d="M9.96875 20.2409C9.96875 20.3659 9.82813 20.4596 9.64063 20.4596C9.46875 20.4596 9.3125 20.3659 9.3125 20.2409C9.3125 20.1159 9.45313 20.0221 9.64063 20.0221C9.82813 20.0065 9.96875 20.1159 9.96875 20.2409Z" fill="#C4E5D9"/>
<path d="M10.4688 20.991C10.4688 21.116 10.3281 21.2097 10.1406 21.2097C9.96875 21.2097 9.8125 21.116 9.8125 20.991C9.8125 20.866 9.95313 20.7722 10.1406 20.7722C10.3281 20.7566 10.4688 20.866 10.4688 20.991Z" fill="#C4E5D9"/>
<path d="M11.0156 21.6783C11.0156 21.8033 10.875 21.8971 10.6875 21.8971C10.5156 21.8971 10.3594 21.8033 10.3594 21.6783C10.3594 21.5533 10.5 21.4596 10.6875 21.4596C10.875 21.4596 11.0156 21.5533 11.0156 21.6783Z" fill="#C4E5D9"/>
<path d="M11.7656 22.2877C11.7656 22.4127 11.625 22.5065 11.4375 22.5065C11.2656 22.5065 11.1094 22.4127 11.1094 22.2877C11.1094 22.1627 11.25 22.069 11.4375 22.069C11.625 22.0534 11.7656 22.1627 11.7656 22.2877Z" fill="#C4E5D9"/>
<path d="M12.8125 22.6785C12.8125 22.8035 12.6719 22.8972 12.4844 22.8972C12.3125 22.8972 12.1562 22.8035 12.1562 22.6785C12.1562 22.5535 12.2969 22.4597 12.4844 22.4597C12.6719 22.4597 12.8125 22.5535 12.8125 22.6785Z" fill="#C4E5D9"/>
<path d="M13.8594 22.6785C13.8594 22.8035 13.7188 22.8972 13.5312 22.8972C13.3594 22.8972 13.2031 22.8035 13.2031 22.6785C13.2031 22.5535 13.3437 22.4597 13.5312 22.4597C13.7188 22.4597 13.8594 22.5535 13.8594 22.6785Z" fill="#C4E5D9"/>
<path d="M14.9219 22.5066C14.9219 22.6316 14.7813 22.7253 14.5938 22.7253C14.4219 22.7253 14.2656 22.6316 14.2656 22.5066C14.2656 22.3816 14.4062 22.2878 14.5938 22.2878C14.7656 22.2878 14.9219 22.3816 14.9219 22.5066Z" fill="#C4E5D9"/>
</svg>
