<svg width="40" height="41" viewBox="0 0 40 41" fill="none" xmlns="http://www.w3.org/2000/svg">
<path d="M39.2456 18.3026L21.7812 0.839175C20.7761 -0.166606 19.1448 -0.166606 18.1384 0.839175L14.5119 4.46574L19.1123 9.06621C20.1814 8.70496 21.4073 8.9473 22.2595 9.79949C23.1158 10.6571 23.3564 11.8935 22.9864 12.9661L27.42 17.3998C28.4927 17.0303 29.7303 17.2693 30.587 18.1275C31.7844 19.3243 31.7844 21.2642 30.587 22.4618C29.3894 23.6596 27.4495 23.6596 26.2512 22.4618C25.3506 21.5603 25.1281 20.2376 25.5841 19.1281L21.4494 14.9934L21.4489 25.8742C21.7486 26.0224 22.0224 26.2181 22.2595 26.4539C23.4569 27.6507 23.4569 29.5907 22.2595 30.7893C21.0619 31.9865 19.1211 31.9865 17.9252 30.7893C16.7278 29.5907 16.7278 27.6509 17.9252 26.454C18.2121 26.1669 18.5531 25.9396 18.9284 25.7851V14.8029C18.5525 14.6495 18.2114 14.422 17.9252 14.134C17.018 13.2281 16.7998 11.897 17.2647 10.7831L12.7297 6.24761L0.754687 18.2218C-0.251563 19.2285 -0.251563 20.86 0.754687 21.8659L18.2194 39.3296C19.2248 40.3356 20.8558 40.3356 21.8625 39.3296L39.2455 21.947C40.2514 20.9407 40.2514 19.3084 39.2455 18.3026" fill="#DE4C36"/>
</svg>
