<svg width="40" height="46" viewBox="0 0 40 46" fill="none" xmlns="http://www.w3.org/2000/svg">
<path d="M3.64034 40.9125L0 0.0845947H40L36.3548 40.906L19.9757 45.4471L3.64034 40.9125Z" fill="#E44F26"/>
<path d="M20 41.5533L33.2361 37.8838L36.3499 3H20V41.5533Z" fill="#F1662A"/>
<path d="M20.0003 18.5647H13.3741L12.9172 13.4371H20.0003V8.42944H7.44458L7.56447 9.77412L8.79411 23.5724H20.0003V18.5647Z" fill="#EBEBEB"/>
<path d="M20.0007 31.5694L19.978 31.5759L14.4016 30.0708L14.0452 26.0773H9.01807L9.71957 33.9379L19.978 36.7861L20.0007 36.7796V31.5694Z" fill="#EBEBEB"/>
<path d="M19.9822 18.5653V23.573H26.1482L25.5682 30.0679L19.9822 31.5746V36.7848L30.2487 33.9383L30.3232 33.0926L31.4994 19.91L31.6225 18.5653H19.9822Z" fill="white"/>
<path d="M19.9822 8.42944V13.4371H32.0778L32.1782 12.3128L32.4066 9.77412L32.5265 8.42944H19.9822Z" fill="white"/>
</svg>
