<svg width="40" height="41" viewBox="0 0 40 41" fill="none" xmlns="http://www.w3.org/2000/svg">
<path d="M0 0.0845947H40V40.0846H0V0.0845947Z" fill="#F7DF1E"/>
<path d="M10.5175 33.5115L13.5784 31.659C14.1691 32.706 14.7062 33.5919 15.9948 33.5919C17.23 33.5919 18.0089 33.1088 18.0089 31.2294V18.4485H21.7678V31.2825C21.7678 35.1758 19.4856 36.948 16.1559 36.948C13.1489 36.948 11.4034 35.3907 10.5173 33.5111" fill="black"/>
<path d="M23.8097 33.1086L26.8703 31.3365C27.6761 32.6523 28.7233 33.6189 30.5758 33.6189C32.1335 33.6189 33.1266 32.8401 33.1266 31.7661C33.1266 30.4773 32.1063 30.0207 30.3879 29.2692L29.4483 28.8661C26.7363 27.7118 24.9374 26.2618 24.9374 23.2009C24.9374 20.3815 27.0854 18.2334 30.4418 18.2334C32.8314 18.2334 34.5499 19.0659 35.7849 21.2407L32.858 23.1204C32.2135 21.9659 31.5157 21.5095 30.4416 21.5095C29.3407 21.5095 28.6425 22.2076 28.6425 23.1204C28.6425 24.2481 29.3407 24.7048 30.9516 25.4029L31.8913 25.8056C35.0866 27.1751 36.8855 28.5712 36.8855 31.7125C36.8855 35.0959 34.2274 36.9484 30.6563 36.9484C27.1658 36.9484 24.9104 35.2837 23.8096 33.1087" fill="black"/>
</svg>
