<svg width="40" height="39" viewBox="0 0 40 39" fill="none" xmlns="http://www.w3.org/2000/svg">
<path d="M2.54291 9.04762C-1.00279 14.139 -0.559736 20.7548 2.14491 26.1591C2.21 26.2956 2.27508 26.4195 2.34016 26.5434C2.37896 26.6285 2.42527 26.7123 2.47032 26.7912C2.49286 26.8387 2.51923 26.8843 2.54917 26.9276C2.59423 27.019 2.64054 27.0966 2.68559 27.1817L2.94592 27.6247C2.99098 27.7098 3.04354 27.7874 3.09611 27.8663C3.18747 28.0227 3.29761 28.1792 3.38898 28.3356C3.43403 28.4007 3.47409 28.4658 3.51914 28.5309C3.68185 28.7849 3.85832 29.0327 4.04105 29.2743C4.17121 29.4508 4.30138 29.626 4.43905 29.8025C4.4841 29.8613 4.53667 29.9264 4.58298 29.9915L4.9547 30.4408C4.99975 30.4933 5.0398 30.5522 5.09112 30.6035C5.25382 30.7987 5.43029 30.9952 5.59926 31.1842C5.59926 31.1905 5.60551 31.1905 5.60551 31.1967C5.82079 31.4646 6.05483 31.7111 6.31641 31.9339C6.45283 32.0703 6.58424 32.208 6.72692 32.3382L6.89589 32.5009C7.07862 32.6773 7.26135 32.8463 7.45659 33.0153C7.46285 33.0153 7.46285 33.0153 7.46911 33.0215L7.56047 33.1004C7.72944 33.2505 7.90591 33.4007 8.08238 33.5372L8.29139 33.7136C8.42781 33.825 8.578 33.9352 8.72193 34.0465L8.94972 34.223C9.10617 34.3407 9.26887 34.4508 9.42532 34.5685C9.48414 34.6073 9.54296 34.6536 9.60805 34.6861L9.6531 34.7249L10.1224 35.0378L10.3239 35.168C10.5655 35.3244 10.8133 35.4746 11.0536 35.6248C11.125 35.6573 11.19 35.6961 11.2551 35.7362C11.4378 35.8401 11.6268 35.9452 11.8096 36.0428C11.9072 36.1016 12.0111 36.1467 12.1162 36.1993C12.2401 36.2706 12.3703 36.3357 12.5004 36.4083C12.5349 36.4157 12.5679 36.4288 12.5981 36.4471L12.7545 36.5259C12.956 36.6235 13.165 36.7212 13.3803 36.8125C13.4191 36.8326 13.4654 36.8451 13.5105 36.8713C13.752 36.9752 13.986 37.0804 14.2401 37.178C14.2927 37.1905 14.3515 37.223 14.4091 37.2431C14.6369 37.3282 14.8722 37.412 15.0999 37.4971L15.1788 37.5234C15.4391 37.6148 15.6869 37.6924 15.9485 37.7775C16.0073 37.79 16.0724 37.8163 16.1312 37.8301C16.3991 37.9152 16.6532 38.0065 16.9197 38.0578C34.0438 41.1805 39.0175 27.7649 39.0175 27.7649C34.8385 33.208 27.4204 34.6423 20.3941 33.0453C20.1338 32.9865 19.8797 32.9014 19.6119 32.8238C19.299 32.7324 18.9798 32.6285 18.6669 32.5234L18.5631 32.4846C18.3415 32.4057 18.12 32.3219 17.8985 32.2368C17.8396 32.2105 17.7746 32.1917 17.7157 32.1654C17.4728 32.0696 17.2317 31.9695 16.9923 31.8651C16.9398 31.845 16.901 31.82 16.8484 31.8C16.6469 31.7086 16.4441 31.6172 16.2426 31.5196C16.1826 31.4916 16.1237 31.4612 16.0662 31.4283C15.9097 31.3569 15.7533 31.2718 15.5968 31.193C15.4929 31.1404 15.3878 31.0891 15.2902 31.0365L14.7232 30.7236C14.6625 30.6828 14.5994 30.6456 14.5342 30.6122C14.2864 30.462 14.0449 30.3119 13.8046 30.1629C13.7395 30.1241 13.6744 30.0778 13.6093 30.0328C13.433 29.9212 13.259 29.8061 13.0874 29.6873C13.0294 29.6484 12.973 29.607 12.9185 29.5634C12.7493 29.4519 12.584 29.3346 12.4228 29.2117C12.3515 29.1529 12.2789 29.1003 12.2013 29.0428C12.0574 28.9314 11.9084 28.8212 11.7645 28.6973L11.563 28.5409C11.374 28.3907 11.1913 28.2342 11.0086 28.0715C10.9885 28.0515 10.9698 28.039 10.9435 28.019L10.3703 27.4971L10.2013 27.3406C10.0649 27.1967 9.9272 27.0665 9.78452 26.9301L9.62181 26.7611C9.44529 26.5858 9.27375 26.4055 9.10742 26.2205L9.08113 26.1942C8.90466 26.0052 8.7357 25.8024 8.55923 25.6072C8.51417 25.5546 8.47412 25.4958 8.42906 25.4445L8.05109 24.9814C7.85664 24.7357 7.6676 24.4857 7.48413 24.2317C3.58548 18.9125 2.17746 11.572 5.29387 5.54948L2.54291 9.04762ZM13.533 4.75848C10.9648 8.44812 11.1074 13.3756 13.1087 17.2742C13.4416 17.9263 13.8196 18.5583 14.2364 19.1641C14.6206 19.7123 15.0449 20.3631 15.5593 20.8074C15.7357 21.0089 15.931 21.2054 16.1325 21.4069L16.2827 21.5571C16.4717 21.7398 16.6669 21.9226 16.8697 22.0978L16.896 22.1241C17.1175 22.3193 17.3453 22.5083 17.5868 22.691C17.6394 22.7298 17.6907 22.7761 17.7433 22.8149C17.9786 22.9914 18.2126 23.1666 18.4542 23.3368L18.4804 23.3569C18.5843 23.4282 18.6957 23.5008 18.8134 23.5721C18.8584 23.6047 18.911 23.6435 18.9636 23.6698C19.14 23.7874 19.3152 23.8913 19.4917 24.0027C19.5243 24.0152 19.5443 24.029 19.5706 24.0415C19.7208 24.1328 19.8897 24.2179 20.0462 24.3018C20.0987 24.3343 20.15 24.3606 20.2089 24.3932C20.3203 24.4457 20.4304 24.5046 20.5343 24.5621L20.5931 24.5822C20.8146 24.6935 21.0424 24.7974 21.2715 24.9013C21.5062 25.0042 21.7432 25.1018 21.9824 25.1942C22.0675 25.2205 22.1451 25.253 22.2239 25.2793C22.3929 25.3444 22.5756 25.4032 22.7458 25.462L22.9736 25.5333C23.2214 25.6122 23.4692 25.7098 23.7233 25.7486C36.9437 27.9389 40 17.7636 40 17.7636C37.2428 21.7273 31.9173 23.6172 26.2327 22.1441C25.9786 22.079 25.7308 22.0002 25.483 21.9226C25.4042 21.9025 25.3328 21.8775 25.2552 21.8575C25.0863 21.7924 24.9035 21.7336 24.7408 21.6747L24.4993 21.5834C24.3103 21.5045 24.1213 21.4395 23.9386 21.3556C23.8797 21.3293 23.8272 21.3168 23.7884 21.2905C23.5542 21.1881 23.3218 21.0817 23.0912 20.9714L22.7458 20.7886L22.5506 20.691C22.4 20.6137 22.2522 20.5311 22.1075 20.4432C22.0721 20.4249 22.0375 20.4053 22.0036 20.3844C21.8272 20.273 21.6457 20.1691 21.4755 20.0515C21.4188 20.0208 21.3644 19.9861 21.3128 19.9476L20.9673 19.726C20.7258 19.5571 20.4917 19.3744 20.2502 19.2041C20.2015 19.1567 20.1492 19.1132 20.0937 19.074C17.5968 17.1053 15.6281 14.4194 14.6894 11.3818C13.7057 8.22033 13.9272 4.67463 15.6219 1.79976L13.533 4.75848ZM22.7771 1.55195C21.2652 3.77475 21.115 6.53822 22.1576 8.99005C23.2652 11.5908 25.5343 13.6384 28.1739 14.6021C28.2853 14.6472 28.3892 14.681 28.4993 14.7198L28.6432 14.7648C28.7997 14.8099 28.9561 14.8687 29.1126 14.9087C36.413 16.3168 38.388 11.154 38.9236 10.3981C37.1827 12.895 34.269 13.4945 30.6908 12.6271C30.0405 12.4549 29.4075 12.2232 28.7997 11.935C28.1668 11.6246 27.5643 11.2559 26.9999 10.8336C23.7921 8.40181 21.8109 3.77349 23.9035 0L22.7771 1.55195Z" fill="#0769AD"/>
</svg>
