<svg width="40" height="36" viewBox="0 0 40 36" fill="none" xmlns="http://www.w3.org/2000/svg">
<path d="M32.888 11.6196C32.4623 11.4735 32.033 11.3382 31.6005 11.2138C31.6731 10.9169 31.74 10.6236 31.7994 10.3355C32.7741 5.6041 32.1369 1.79238 29.9605 0.53738C27.8737 -0.665745 24.4611 0.588786 21.0145 3.58832C20.6749 3.88446 20.3427 4.18914 20.0184 4.50207C19.8013 4.29398 19.5804 4.08994 19.3558 3.89004C15.7436 0.682849 12.123 -0.66887 9.94891 0.589724C7.86406 1.7966 7.24672 5.37988 8.12422 9.86394C8.21152 10.308 8.31009 10.7499 8.41984 11.1889C7.90734 11.3346 7.41281 11.4896 6.93953 11.6546C2.70453 13.1311 0 15.445 0 17.8452C0 20.3241 2.90344 22.8105 7.31437 24.3182C7.67198 24.4399 8.03256 24.5527 8.39578 24.6564C8.27782 25.1294 8.17309 25.6055 8.08172 26.0843C7.24516 30.4905 7.89844 33.9891 9.97766 35.1883C12.1252 36.4268 15.7295 35.1539 19.2391 32.086C19.5236 31.8366 19.802 31.5801 20.0737 31.3168C20.4249 31.6556 20.7855 31.9846 21.155 32.3033C24.5547 35.2286 27.9122 36.4099 29.9894 35.2074C32.1348 33.9653 32.8322 30.2069 31.9269 25.6343C31.8556 25.276 31.7756 24.9196 31.687 24.5652C31.9402 24.4902 32.1886 24.413 32.4308 24.3327C37.0164 22.8135 40 20.3572 40 17.8452C40 15.4363 37.2081 13.1068 32.888 11.6196ZM31.8934 22.7108C31.6747 22.7832 31.4503 22.853 31.2216 22.921C30.7153 21.3183 30.0322 19.6143 29.1961 17.8535C29.9939 16.1347 30.6508 14.4524 31.1428 12.8602C31.552 12.9786 31.9491 13.1035 32.3319 13.2352C36.0334 14.5096 38.2912 16.3935 38.2912 17.8452C38.2912 19.3914 35.8528 21.3988 31.8934 22.7108ZM30.2506 25.9661C30.6509 27.988 30.708 29.8161 30.4428 31.2453C30.2047 32.5296 29.7256 33.3857 29.1331 33.7286C27.8727 34.4583 25.1769 33.5099 22.2695 31.008C21.9258 30.7117 21.5904 30.4058 21.2638 30.0908C22.3909 28.8582 23.5173 27.4252 24.6167 25.8336C26.5505 25.6621 28.3773 25.3814 30.0341 24.9985C30.1156 25.3277 30.1881 25.6505 30.2506 25.9661ZM13.6369 33.6025C12.4053 34.0374 11.4244 34.0499 10.8314 33.708C9.56969 32.9804 9.04516 30.1711 9.76062 26.403C9.84567 25.9577 9.94306 25.5149 10.0527 25.075C11.6911 25.4375 13.5047 25.6982 15.443 25.8554C16.5498 27.4127 17.7087 28.8441 18.8767 30.0975C18.6285 30.3377 18.3744 30.5717 18.1147 30.7994C16.5627 32.156 15.0075 33.1185 13.6369 33.6025ZM7.86719 22.7013C5.91672 22.0346 4.30594 21.1682 3.20188 20.2227C2.20969 19.3732 1.70891 18.5296 1.70891 17.8452C1.70891 16.3886 3.88031 14.5308 7.50203 13.2682C7.94156 13.115 8.40156 12.9705 8.87891 12.8349C9.37953 14.463 10.0361 16.1653 10.8284 17.8868C10.0258 19.6336 9.35984 21.3632 8.85437 23.0105C8.52283 22.9155 8.19367 22.8124 7.86719 22.7013ZM9.80125 9.53566C9.04953 5.69394 9.54875 2.79597 10.8052 2.06863C12.1433 1.29394 15.1023 2.39847 18.2212 5.16785C18.4246 5.34885 18.6247 5.53351 18.8214 5.72175C17.6592 6.96972 16.5109 8.3905 15.4139 9.93863C13.5327 10.113 11.7319 10.393 10.0763 10.7682C9.97425 10.3598 9.88255 9.94884 9.80125 9.53582V9.53566ZM27.0555 13.7963C26.6644 13.1208 26.2589 12.4538 25.8391 11.7958C27.1153 11.9572 28.3381 12.1714 29.4864 12.4333C29.1417 13.5383 28.712 14.6935 28.2063 15.8778C27.8366 15.1764 27.4529 14.4824 27.0555 13.7963ZM20.0192 6.94301C20.8073 7.79691 21.5967 8.75019 22.3731 9.78457C20.7981 9.71018 19.2205 9.70987 17.6455 9.78363C18.4227 8.75879 19.2188 7.80676 20.0192 6.94301ZM12.9378 13.808C12.5454 14.4886 12.1689 15.1783 11.8086 15.8764C11.3111 14.6963 10.8853 13.5358 10.5377 12.4152C11.6789 12.1599 12.8959 11.9511 14.1641 11.7927C13.7396 12.4547 13.3307 13.1266 12.9378 13.8078V13.808ZM14.2005 24.0193C12.8903 23.873 11.655 23.675 10.5141 23.4266C10.8672 22.286 11.3023 21.1008 11.8106 19.8953C12.1723 20.594 12.5504 21.2841 12.9445 21.965C13.3498 22.665 13.7695 23.3507 14.2005 24.0193ZM20.0664 28.8677C19.2564 27.9939 18.4486 27.0272 17.6597 25.9875C18.4256 26.0175 19.2064 26.0329 20 26.0329C20.8153 26.0329 21.6213 26.0146 22.4145 25.9793C21.6356 27.0377 20.8492 28.0058 20.0664 28.8677ZM28.2223 19.8338C28.757 21.0525 29.2077 22.2314 29.5655 23.3525C28.4058 23.6172 27.1536 23.8303 25.8342 23.9886C26.257 23.3184 26.6664 22.6398 27.0622 21.9533C27.4646 21.2555 27.8514 20.5488 28.2223 19.8338ZM25.582 21.0996C24.9761 22.1521 24.3361 23.1847 23.6631 24.1957C22.444 24.282 21.2222 24.3249 20 24.3243C18.7552 24.3243 17.5444 24.2855 16.3784 24.2099C15.6878 23.2013 15.0357 22.1669 14.4233 21.1089H14.4234C13.8139 20.0566 13.2446 18.9815 12.7167 17.886C13.2433 16.7902 13.8109 15.7146 14.4183 14.6614L14.4181 14.6616C15.0253 13.6082 15.6723 12.5782 16.3577 11.5739C17.5472 11.4839 18.767 11.4371 19.9998 11.4371H20C21.2384 11.4371 22.4598 11.4844 23.6491 11.575C24.3275 12.5778 24.9704 13.6042 25.5764 14.6524C26.1858 15.7032 26.7609 16.7735 27.3008 17.8618C26.7665 18.9611 26.1932 20.041 25.582 21.0996ZM29.107 2.01769C30.4464 2.79019 30.9673 5.90535 30.1258 9.9905C30.072 10.2511 30.0117 10.5166 29.9461 10.7858C28.2864 10.4027 26.4844 10.1178 24.5977 9.94082C23.4986 8.37566 22.3597 6.95269 21.2164 5.72082C21.516 5.43199 21.8228 5.15065 22.1364 4.87707C25.0895 2.30722 27.8495 1.29254 29.107 2.01769ZM20 14.2733C21.9727 14.2733 23.5719 15.8725 23.5719 17.8452C23.5719 19.8178 21.9727 21.4171 20 21.4171C18.0273 21.4171 16.4281 19.8178 16.4281 17.8452C16.4281 15.8725 18.0273 14.2733 20 14.2733Z" fill="#00D8FF"/>
</svg>
