<svg width="40" height="31" viewBox="0 0 40 31" fill="none" xmlns="http://www.w3.org/2000/svg">
<path d="M34.348 17.3524C32.9565 17.3596 31.7469 17.6947 30.7343 18.1902C30.3626 17.4543 29.991 16.7986 29.9255 16.3177C29.8526 15.7568 29.7652 15.4143 29.8526 14.7439C29.9401 14.0736 30.3335 13.1191 30.3261 13.0463C30.319 12.9735 30.2386 12.631 29.4372 12.6238C28.6358 12.6164 27.9436 12.7768 27.8635 12.988C27.7833 13.1993 27.6304 13.6802 27.5283 14.1755C27.3899 14.9043 25.9255 17.5052 25.0877 18.8677C24.818 18.336 24.5849 17.8696 24.5338 17.498C24.461 16.9371 24.3735 16.5946 24.461 15.9243C24.5485 15.2539 24.9419 14.2996 24.9346 14.2266C24.9272 14.1538 24.8471 13.8113 24.0457 13.8041C23.2441 13.7968 22.5519 13.9571 22.4719 14.1683C22.3918 14.3797 22.3043 14.875 22.1368 15.356C21.9691 15.8369 20.0238 20.1794 19.5138 21.3013C19.3077 21.7554 19.0915 22.2048 18.8654 22.6493C18.8654 22.6493 18.858 22.6711 18.8361 22.7075C18.7651 22.8469 18.6923 22.9853 18.6177 23.1228V23.13C18.5083 23.3269 18.3918 23.5089 18.3335 23.5089C18.2897 23.5089 18.2096 22.9844 18.348 22.2703C18.6394 20.7622 19.3316 18.4161 19.3244 18.336C19.3244 18.2922 19.4555 17.8843 18.8727 17.6728C18.3043 17.4616 18.1004 17.8113 18.0493 17.8113C17.9983 17.8113 17.9618 17.9352 17.9618 17.9352C17.9618 17.9352 18.5958 15.2977 16.7524 15.2977C15.6013 15.2977 14.0129 16.5582 13.226 17.6947C12.3315 18.1815 11.4377 18.6697 10.5447 19.1593C10.1151 19.3997 9.67052 19.6402 9.25521 19.866C9.22599 19.8369 9.19693 19.8003 9.16771 19.7713C6.93818 17.3888 2.81443 15.7057 2.98927 12.5072C3.0549 11.3414 3.45552 8.28128 10.9091 4.5655C17.0438 1.54175 21.9255 2.37957 22.7707 4.23753C23.9801 6.88972 20.1551 11.815 13.8161 12.5289C11.3972 12.7986 10.1294 11.866 9.80896 11.5163C9.47381 11.1519 9.42271 11.13 9.29881 11.203C9.0949 11.3124 9.22599 11.6402 9.29881 11.8296C9.48834 12.3249 10.2679 13.1993 11.5866 13.6293C12.7524 14.008 15.5866 14.2194 19.0183 12.8933C22.858 11.4069 25.8599 7.27582 24.9783 3.81503C24.0966 0.303159 18.2679 -0.855279 12.7524 1.10456C9.47381 2.2705 5.91818 4.10644 3.36084 6.49628C0.322555 9.33769 -0.158382 11.8077 0.0383366 12.8424C0.745212 16.5144 5.80896 18.9043 7.83443 20.6747C7.7324 20.733 7.63756 20.7841 7.55756 20.8278C6.54474 21.3305 2.68318 23.3486 1.72146 25.4835C0.628649 27.9024 1.89646 29.6366 2.73427 29.8696C5.33537 30.591 8.00927 29.2941 9.44459 27.1519C10.8799 25.0099 10.7051 22.2266 10.0421 20.9516C10.0347 20.9371 10.0276 20.9224 10.0129 20.9078C10.2752 20.7549 10.5447 20.5946 10.8071 20.4416C11.2893 20.1566 11.7775 19.882 12.2716 19.6182C12.0238 20.2958 11.8416 21.1046 11.7543 22.2703C11.6449 23.6402 12.2058 25.4178 12.9418 26.1172C13.2697 26.4235 13.6558 26.4307 13.9036 26.4307C14.7633 26.4307 15.1496 25.7166 15.5794 24.8714C16.104 23.8369 16.5776 22.6347 16.5776 22.6347C16.5776 22.6347 15.9874 25.8843 17.5904 25.8843C18.1732 25.8843 18.7633 25.1264 19.0257 24.7403V24.7475C19.0257 24.7475 19.0402 24.7257 19.0694 24.6747C19.1277 24.58 19.1641 24.5216 19.1641 24.5216V24.5072C19.3972 24.0991 19.9219 23.1738 20.7015 21.6364C21.7069 19.6547 22.676 17.1775 22.676 17.1775C22.676 17.1775 22.7635 17.7822 23.0621 18.7877C23.2371 19.3778 23.6012 20.0263 23.8927 20.6528C23.6596 20.9808 23.5138 21.1628 23.5138 21.1628L23.5211 21.1702C23.3316 21.4178 23.1277 21.6874 22.9018 21.9499C22.1076 22.8969 21.1605 23.9827 21.0293 24.2958C20.8762 24.6674 20.9127 24.9371 21.2043 25.1557C21.4155 25.316 21.7943 25.3377 22.1805 25.316C22.8946 25.2649 23.3972 25.09 23.6449 24.9808C24.0312 24.8424 24.4829 24.631 24.9054 24.3177C25.6851 23.7421 26.1585 22.9188 26.1149 21.8333C26.093 21.2358 25.8963 20.6383 25.6558 20.0772C25.7288 19.9753 25.7943 19.8733 25.8672 19.7713C27.0985 17.9716 28.053 15.9971 28.053 15.9971C28.053 15.9971 28.1405 16.6018 28.4391 17.6074C28.5849 18.1174 28.8836 18.6711 29.1458 19.2102C27.9874 20.1502 27.2733 21.243 27.0183 21.9571C26.5594 23.2832 26.9163 23.8805 27.594 24.0189C27.8999 24.0846 28.3371 23.9388 28.6577 23.8003C29.0657 23.6693 29.5466 23.4435 30.0057 23.1082C30.7854 22.5327 31.5357 21.7311 31.4919 20.6457C31.4701 20.1502 31.339 19.6619 31.1568 19.1883C32.1404 18.7805 33.4082 18.5546 35.0255 18.7439C38.4938 19.1519 39.1786 21.3158 39.0474 22.2268C38.9163 23.1374 38.1877 23.6328 37.9474 23.7858C37.7068 23.9389 37.6268 23.9899 37.6487 24.0991C37.6777 24.2594 37.7943 24.2522 37.9983 24.223C38.2826 24.1721 39.8199 23.4871 39.8854 21.8113C39.9947 19.6693 37.9546 17.3305 34.348 17.3524ZM7.59396 26.3724C6.44271 27.6255 4.8399 28.0991 4.14771 27.6985C3.40459 27.2685 3.69599 25.4178 5.10943 24.0919C5.96912 23.2832 7.07662 22.5325 7.81256 22.0736C7.98006 21.9716 8.22787 21.826 8.52662 21.6438C8.57756 21.6146 8.60677 21.6 8.60677 21.6L8.78162 21.4907C9.29881 23.385 8.80349 25.0536 7.59396 26.3724ZM15.9729 20.6747C15.5721 21.6511 14.7343 24.1502 14.2243 24.0118C13.7871 23.8952 13.5174 22.0008 14.1368 20.1283C14.4501 19.1883 15.113 18.0663 15.4993 17.6293C16.1258 16.9297 16.818 16.6964 16.9855 16.9808C17.1969 17.3524 16.2205 20.0627 15.9729 20.6747ZM22.8872 23.9825C22.7196 24.07 22.5594 24.1283 22.4865 24.0846C22.4355 24.0553 22.5594 23.9388 22.5594 23.9388C22.5594 23.9388 23.4265 23.0063 23.7688 22.5836C23.9657 22.336 24.1986 22.0446 24.4465 21.7166V21.8113C24.4465 22.9261 23.368 23.6766 22.8871 23.9825H22.8872ZM28.2205 22.7658C28.0966 22.6783 28.1185 22.3869 28.5338 21.4761C28.6941 21.1191 29.0729 20.5218 29.7215 19.9461C29.7943 20.1793 29.8454 20.4052 29.838 20.6164C29.8307 22.0227 28.8254 22.5472 28.2205 22.7658Z" fill="#CD6799"/>
</svg>
